<svg width="32" height="32" viewBox="0 0 32 32" fill="none" xmlns="http://www.w3.org/2000/svg">
<path d="M25.3333 9.33333H21.3333V7.33333C21.3333 6.44928 20.9821 5.60143 20.357 4.97631C19.7319 4.35119 18.884 4 18 4H14C13.1159 4 12.2681 4.35119 11.6429 4.97631C11.0178 5.60143 10.6666 6.44928 10.6666 7.33333V9.33333H6.66663C5.60576 9.33333 4.58834 9.75476 3.8382 10.5049C3.08805 11.2551 2.66663 12.2725 2.66663 13.3333V24C2.66663 25.0609 3.08805 26.0783 3.8382 26.8284C4.58834 27.5786 5.60576 28 6.66663 28H25.3333C26.3942 28 27.4116 27.5786 28.1617 26.8284C28.9119 26.0783 29.3333 25.0609 29.3333 24V13.3333C29.3333 12.2725 28.9119 11.2551 28.1617 10.5049C27.4116 9.75476 26.3942 9.33333 25.3333 9.33333ZM13.3333 7.33333C13.3333 7.15652 13.4035 6.98695 13.5286 6.86193C13.6536 6.7369 13.8231 6.66667 14 6.66667H18C18.1768 6.66667 18.3463 6.7369 18.4714 6.86193C18.5964 6.98695 18.6666 7.15652 18.6666 7.33333V9.33333H13.3333V7.33333ZM26.6666 24C26.6666 24.3536 26.5261 24.6928 26.2761 24.9428C26.0261 25.1929 25.6869 25.3333 25.3333 25.3333H6.66663C6.313 25.3333 5.97387 25.1929 5.72382 24.9428C5.47377 24.6928 5.33329 24.3536 5.33329 24V13.3333C5.33329 12.9797 5.47377 12.6406 5.72382 12.3905C5.97387 12.1405 6.313 12 6.66663 12H25.3333C25.6869 12 26.0261 12.1405 26.2761 12.3905C26.5261 12.6406 26.6666 12.9797 26.6666 13.3333V24Z" fill="white"/>
<path d="M15.9999 14C15.0769 14 14.1747 14.2737 13.4073 14.7865C12.6398 15.2993 12.0417 16.0281 11.6885 16.8808C11.3353 17.7335 11.2429 18.6718 11.4229 19.5771C11.603 20.4823 12.0474 21.3139 12.7001 21.9665C13.3527 22.6191 14.1843 23.0636 15.0895 23.2437C15.9947 23.4237 16.9331 23.3313 17.7858 22.9781C18.6385 22.6249 19.3673 22.0268 19.8801 21.2593C20.3929 20.4919 20.6666 19.5896 20.6666 18.6667C20.6666 17.429 20.1749 16.242 19.2998 15.3668C18.4246 14.4917 17.2376 14 15.9999 14ZM15.9999 20.6667C15.6044 20.6667 15.2177 20.5494 14.8888 20.3296C14.5599 20.1098 14.3035 19.7975 14.1522 19.432C14.0008 19.0666 13.9612 18.6644 14.0384 18.2765C14.1155 17.8885 14.306 17.5322 14.5857 17.2525C14.8654 16.9727 15.2218 16.7823 15.6097 16.7051C15.9977 16.6279 16.3998 16.6675 16.7653 16.8189C17.1307 16.9703 17.4431 17.2266 17.6629 17.5555C17.8826 17.8844 17.9999 18.2711 17.9999 18.6667C17.9999 19.1971 17.7892 19.7058 17.4141 20.0809C17.0391 20.456 16.5304 20.6667 15.9999 20.6667Z" fill="white"/>
</svg>
