<svg width="28" height="28" viewBox="0 0 28 28" fill="none" xmlns="http://www.w3.org/2000/svg">
<path d="M10.5894 0.253784C8.72297 0.253784 7.19591 1.78085 7.19591 3.64727V7.04075H0.714349C0.510739 7.04075 0.408935 7.17649 0.408935 7.34617V15.5245C0.408935 16.4746 1.1555 17.2212 2.10568 17.2212H25.8601C26.8103 17.2212 27.5568 16.4746 27.5568 15.5245V7.34617C27.5568 7.14256 27.4211 7.04075 27.2514 7.04075H20.7698V3.64727C20.7698 1.78085 19.2428 0.253784 17.3764 0.253784H10.5894V0.253784ZM10.5894 3.64727H17.3764V7.04075H10.5894V3.64727ZM0.408935 20.3093V27.0963C0.408935 27.2659 0.544674 27.4017 0.714349 27.4017H27.2175C27.3871 27.4017 27.5229 27.2659 27.5229 27.0963V20.3093C26.9799 20.5129 26.437 20.6147 25.8261 20.6147H2.07174C1.46092 20.6147 0.917958 20.479 0.375 20.3093H0.408935Z" fill="white"/>
</svg>
