<svg width="11" height="10" viewBox="0 0 11 10" fill="none" xmlns="http://www.w3.org/2000/svg">
<path d="M1.82601 0.17395V1.34786C5.7234 1.34786 8.86949 4.49395 8.86949 8.39134H10.0434C10.0434 3.86004 6.35732 0.17395 1.82601 0.17395ZM1.82601 2.52178V3.69569C4.42036 3.69569 6.52166 5.79699 6.52166 8.39134H7.69558C7.69558 5.15134 5.06601 2.52178 1.82601 2.52178ZM1.82601 4.8696V6.04352C3.12906 6.04352 4.17384 7.0883 4.17384 8.39134H5.34775C5.34775 6.45438 3.76297 4.8696 1.82601 4.8696ZM1.82601 7.21743C1.18036 7.21743 0.6521 7.74569 0.6521 8.39134C0.6521 9.03699 1.18036 9.56525 1.82601 9.56525C2.47166 9.56525 2.99993 9.03699 2.99993 8.39134C2.99993 7.74569 2.47166 7.21743 1.82601 7.21743Z" fill="white"/>
</svg>
