<svg width="16" height="13" viewBox="0 0 16 13" fill="none" xmlns="http://www.w3.org/2000/svg">
<path d="M11 0C9.98 0 9.1 0.553584 8.56 1.39187C9.46 2.24597 10 3.4164 10 4.76082C10 5.21951 9.94 5.63074 9.82 6.04197C10.2 6.21596 10.58 6.34249 11 6.34249C12.66 6.34249 14 4.91899 14 3.17915C14 1.43932 12.66 0.0158167 11 0.0158167V0ZM5 1.58167C3.34 1.58167 2 3.00517 2 4.74501C2 6.48484 3.34 7.90834 5 7.90834C6.66 7.90834 8 6.48484 8 4.74501C8 3.00517 6.66 1.58167 5 1.58167ZM14.5 6.57974C13.64 7.38639 12.46 7.87671 11.12 7.90834C11.66 8.50938 12 9.23695 12 10.0278V11.0717H16V8.44611C16 7.62364 15.38 6.91189 14.5 6.56393V6.57974ZM1.5 8.16141C0.62 8.50938 0 9.22113 0 10.0436V12.6692H10V10.0436C10 9.22113 9.38 8.50938 8.5 8.16141C7.6 8.99969 6.38 9.49001 5 9.49001C3.62 9.49001 2.4 8.98388 1.5 8.16141Z" fill="white"/>
</svg>
