<svg width="16" height="15" viewBox="0 0 16 15" fill="none" xmlns="http://www.w3.org/2000/svg">
<path d="M7.0606 0.0185818C3.38353 0.0185818 0.392334 2.93592 0.392334 6.5222C0.392334 10.1085 3.38353 13.0258 7.0606 13.0258C8.18468 13.0258 9.28971 12.7657 10.2233 12.264C10.298 12.3517 10.381 12.4326 10.4709 12.5055L12.3762 14.3637C12.5521 14.5568 12.7666 14.7127 13.0066 14.822C13.2465 14.9313 13.5069 14.9916 13.7716 14.9992C14.0363 15.0068 14.2998 14.9615 14.5459 14.8662C14.7921 14.7709 15.0156 14.6275 15.2029 14.4449C15.3902 14.2622 15.5372 14.0442 15.6349 13.8041C15.7326 13.5641 15.779 13.3071 15.7712 13.0489C15.7634 12.7907 15.7016 12.5368 15.5896 12.3028C15.4775 12.0687 15.3176 11.8595 15.1197 11.6879L13.2145 9.82976C13.1217 9.73921 13.0195 9.65826 12.9096 9.5882C13.424 8.67769 13.7479 7.61853 13.7479 6.50362C13.7479 2.91734 10.7567 0 7.07965 0L7.0606 0.0185818ZM7.0606 1.87676C9.70886 1.87676 11.8237 3.93934 11.8237 6.5222C11.8237 7.7486 11.3664 8.88209 10.5662 9.71827C10.5472 9.73685 10.5281 9.75543 10.509 9.77401C10.4191 9.84695 10.3362 9.92781 10.2614 10.0156C9.42307 10.7588 8.27994 11.1862 7.04155 11.1862C4.3933 11.1862 2.2785 9.12365 2.2785 6.54078C2.2785 3.95792 4.3933 1.89534 7.04155 1.89534L7.0606 1.87676Z" fill="white"/>
</svg>
