<svg width="3500" height="1500" viewBox="0 0 3500 1500" fill="none" xmlns="http://www.w3.org/2000/svg">
<g clip-path="url(#clip0_315_11)">
<path d="M3565.49 1500L3015.66 1003.34C2942.14 936.93 2846.6 900.167 2747.53 900.167L2352.72 900.167C2253.65 900.167 2158.11 863.404 2084.59 796.997L1983.41 705.599C1909.9 639.192 1814.35 602.429 1715.29 602.429L1654.91 602.429C1555.84 602.429 1460.3 639.192 1386.78 705.599L1285.6 796.997C1212.09 863.404 1116.54 900.167 1017.48 900.167L867.062 900.167C767.994 900.167 672.45 863.404 598.935 796.997L-61.7812 200.171C-135.297 133.764 -230.84 97.0008 -329.908 97.0009L-750.001 97.0009" stroke="white" stroke-opacity="0.12" stroke-width="2"/>
<path d="M3736.62 1500L3186.79 1003.34C3113.27 936.93 3017.73 900.167 2918.66 900.167L2523.85 900.167C2424.78 900.167 2329.24 863.404 2255.72 796.997L2154.54 705.599C2081.03 639.192 1985.48 602.429 1886.41 602.429L1826.04 602.429C1726.97 602.429 1631.43 639.192 1557.91 705.599L1456.73 796.997C1383.22 863.404 1287.67 900.167 1188.6 900.167L1038.19 900.167C939.123 900.167 843.579 863.404 770.064 796.997L109.348 200.171C35.8319 133.764 -59.7114 97.0008 -158.779 97.0009L-578.872 97.0009" stroke="white" stroke-opacity="0.12" stroke-width="2"/>
<path d="M3907.74 1500L3357.91 1003.34C3284.4 936.93 3188.85 900.167 3089.79 900.167L2694.98 900.167C2595.91 900.167 2500.37 863.404 2426.85 796.997L2325.67 705.599C2252.15 639.192 2156.61 602.429 2057.54 602.429L1997.17 602.429C1898.1 602.429 1802.56 639.192 1729.04 705.599L1627.86 796.997C1554.34 863.404 1458.8 900.167 1359.73 900.167L1209.32 900.167C1110.25 900.167 1014.71 863.404 941.191 796.997L280.475 200.171C206.959 133.764 111.416 97.0008 12.3481 97.0009L-407.744 97.0009" stroke="white" stroke-opacity="0.12" stroke-width="2"/>
<path d="M4078.87 1500L3529.04 1003.34C3455.53 936.93 3359.98 900.167 3260.92 900.167L2866.11 900.167C2767.04 900.167 2671.5 863.404 2597.98 796.997L2496.8 705.599C2423.28 639.192 2327.74 602.429 2228.67 602.429L2168.3 602.429C2069.23 602.429 1973.69 639.192 1900.17 705.599L1798.99 796.997C1725.47 863.404 1629.93 900.167 1530.86 900.167L1380.45 900.167C1281.38 900.167 1185.84 863.404 1112.32 796.997L451.604 200.171C378.088 133.764 282.545 97.0008 183.477 97.0009L-236.616 97.0009" stroke="white" stroke-opacity="0.12" stroke-width="2"/>
<path d="M4250 1500L3700.17 1003.34C3626.65 936.93 3531.11 900.167 3432.04 900.167L3037.23 900.167C2938.17 900.167 2842.62 863.404 2769.11 796.997L2667.93 705.599C2594.41 639.192 2498.87 602.429 2399.8 602.429L2339.42 602.429C2240.36 602.429 2144.81 639.192 2071.3 705.599L1970.12 796.997C1896.6 863.404 1801.06 900.167 1701.99 900.167L1551.57 900.167C1452.51 900.167 1356.96 863.404 1283.45 796.997L622.731 200.171C549.215 133.764 453.672 97.0008 354.604 97.0009L-65.4883 97.0009" stroke="white" stroke-opacity="0.12" stroke-width="2"/>
</g>
<defs>
<clipPath id="clip0_315_11">
<rect width="3500" height="1500" fill="white"/>
</clipPath>
</defs>
</svg>
