<svg width="300" height="286" viewBox="0 0 300 286" fill="none" xmlns="http://www.w3.org/2000/svg">
<g clip-path="url(#clip0_131_2)">
<path d="M163.41 271.23C238.847 271.23 300 264.398 300 255.969C300 247.54 238.847 240.708 163.41 240.708C87.9734 240.708 26.8199 247.54 26.8199 255.969C26.8199 264.398 87.9734 271.23 163.41 271.23Z" fill="#3F3D56"/>
<path d="M231.151 239.082L233.506 246.34C233.506 246.34 244.852 258.061 240.748 261.238C236.645 264.415 227.439 247.667 227.439 247.667L225.742 239.474L231.151 239.082Z" fill="#FFB8B8"/>
<path d="M209.385 182.905L212.819 181.76C212.819 181.76 218.16 183.286 218.924 188.628C219.687 193.969 225.41 221.058 225.41 221.058C225.41 221.058 227.699 222.203 226.173 224.111C224.647 226.018 233.803 243.188 233.803 243.188L226.554 246.621C226.554 246.621 212.056 231.36 212.056 229.834C212.056 228.308 212.437 226.781 212.437 225.255C212.437 223.729 212.056 223.729 212.437 222.585C212.692 221.587 212.82 220.562 212.819 219.532L210.148 213.428L209.385 182.905Z" fill="#22D4EC"/>
<path d="M34.4977 209.077C53.5502 209.077 68.9953 177.562 68.9953 138.688C68.9953 99.8127 53.5502 68.2984 34.4977 68.2984C15.4451 68.2984 0 99.8127 0 138.688C0 177.562 15.4451 209.077 34.4977 209.077Z" fill="#22D4EC"/>
<path d="M34.181 139.418C35.9018 108.778 39.369 88.0815 39.4038 87.876L38.6516 87.7486C38.6167 87.9542 35.1434 108.684 33.4198 139.363C31.8292 167.678 31.4454 210.507 38.6514 253.742L39.404 253.617C32.2103 210.455 32.5932 167.691 34.181 139.418Z" fill="#3F3D56"/>
<path d="M65.3306 124.413L34.1393 141.107L34.4994 141.78L65.6907 125.086L65.3306 124.413Z" fill="#3F3D56"/>
<path d="M1.57147 132.78L1.21155 133.453L32.4073 150.139L32.7673 149.466L1.57147 132.78Z" fill="#3F3D56"/>
<path d="M116.203 192.644C142.275 192.644 163.41 149.519 163.41 96.322C163.41 43.1248 142.275 0 116.203 0C90.1308 0 68.9954 43.1248 68.9954 96.322C68.9954 149.519 90.1308 192.644 116.203 192.644Z" fill="#E6E6E6"/>
<path d="M115.629 97.3088C117.984 55.3737 122.73 27.0481 122.778 26.7668L122.025 26.6394C121.978 26.9209 117.226 55.2796 114.868 97.2542C112.692 135.994 112.167 194.591 122.025 253.742L122.778 253.617C112.932 194.539 113.456 136.008 115.629 97.3088Z" fill="#3F3D56"/>
<path d="M158.461 76.9119L115.779 99.7571L116.139 100.43L158.822 77.5847L158.461 76.9119Z" fill="#3F3D56"/>
<path d="M71.0795 88.3618L70.7196 89.0347L113.409 111.868L113.769 111.196L71.0795 88.3618Z" fill="#3F3D56"/>
<path d="M76.8763 230.178C86.6174 230.178 94.5142 214.066 94.5142 194.19C94.5142 174.314 86.6174 158.201 76.8763 158.201C67.1352 158.201 59.2384 174.314 59.2384 194.19C59.2384 214.066 67.1352 230.178 76.8763 230.178Z" fill="#E6E6E6"/>
<path d="M76.8608 195.74L76.9652 195.936L92.9126 187.4L92.5527 186.727L76.8941 195.108C77.7606 179.159 79.5328 168.453 79.5685 168.242L78.8163 168.115C78.7773 168.345 76.6716 181.059 75.9242 199.456L60.1311 191.003L59.7711 191.676L75.7185 200.211L75.9089 199.856C75.3109 215.04 75.6461 234.026 78.8161 253.046L79.5687 252.92C76.1125 232.183 76.0364 211.485 76.8608 195.74Z" fill="#3F3D56"/>
<path d="M214.054 146.687C207.921 136.235 195.788 135.748 195.788 135.748C195.788 135.748 183.964 134.223 176.38 150.142C169.31 164.979 159.553 179.306 174.809 182.779L177.564 174.128L179.271 183.423C181.443 183.581 183.622 183.618 185.798 183.536C202.135 183.004 217.694 183.691 217.193 177.778C216.527 169.917 219.955 156.744 214.054 146.687Z" fill="#2F2E41"/>
<path d="M171.306 230.409C171.135 231.502 170.886 232.581 170.562 233.639C170.197 234.673 169.634 235.63 169.3 236.676C168.237 240.008 169.711 243.723 172.065 246.295C174.101 248.513 176.737 250.092 179.653 250.84C181.777 251.379 183.985 251.456 186.174 251.531C192.234 251.738 198.451 251.924 204.194 249.959C206.009 249.323 207.762 248.52 209.429 247.56C209.957 247.307 210.421 246.938 210.787 246.482C211.225 245.853 211.281 245.037 211.278 244.268C211.265 241.677 210.744 239.099 210.867 236.51C210.936 235.076 211.202 233.644 211.071 232.214C210.895 230.597 210.224 229.073 209.149 227.851C208.074 226.629 206.648 225.769 205.067 225.388C203.437 225.035 201.748 225.227 200.089 225.388C195.784 225.805 191.461 226 187.135 225.972C182.716 225.944 178.325 225.264 173.928 225.192C172.627 225.171 172.654 225.576 172.24 226.845C171.858 228.014 171.546 229.204 171.306 230.409Z" fill="#2F2E41"/>
<path d="M154.026 228.303C152.838 228.002 151.613 227.871 150.389 227.913C149.101 227.994 147.845 228.346 146.703 228.945C145.56 229.544 144.557 230.378 143.758 231.391C142.967 232.419 142.399 233.6 142.089 234.86C141.78 236.119 141.736 237.43 141.961 238.707C142.257 240.091 142.742 241.428 143.402 242.68C144.367 244.654 145.523 246.624 147.309 247.889C148.384 248.585 149.543 249.141 150.757 249.545L160.162 253.119C161.546 253.644 162.93 254.17 164.327 254.658C171.343 257.104 178.663 258.572 186.079 259.02C188.338 259.155 190.63 259.193 192.833 258.674C193.372 258.603 193.865 258.335 194.217 257.921C194.396 257.605 194.502 257.253 194.526 256.891L195.104 252.804C195.234 252.235 195.217 251.643 195.055 251.082C194.79 250.395 194.125 249.963 193.492 249.596C187.309 246.014 180.089 244.038 174.885 239.121C173.66 237.964 172.634 236.13 171.146 235.343C169.458 234.452 167.47 233.943 165.725 233.122C161.91 231.326 158.16 229.262 154.026 228.303Z" fill="#2F2E41"/>
<path opacity="0.1" d="M163.415 233.813C166.74 234.863 180.775 242.142 183.18 244.684C182.858 244.801 171.917 238.617 171.589 238.517C168.605 237.614 165.604 236.705 162.77 235.383C162.2 235.117 159.067 233.867 159.209 233.141C159.369 232.322 162.825 233.626 163.415 233.813Z" fill="black"/>
<path d="M204.888 261.139C205.077 261.153 205.264 261.097 205.415 260.983C205.481 260.896 205.53 260.798 205.558 260.693C205.586 260.588 205.594 260.479 205.579 260.371L205.564 254.804C203.977 254.041 202.201 253.796 200.459 253.561L192.328 252.465C192.514 252.49 191.056 255.997 191.28 256.466C191.674 257.291 194.685 258.022 195.535 258.412C198.49 259.767 201.56 261.256 204.888 261.139Z" fill="#FFB8B8"/>
<path d="M179.377 254.784C177.842 255.031 176.128 255.249 175.134 256.454C173.873 257.983 174.41 260.262 175.011 262.155C175.1 262.538 175.28 262.894 175.534 263.193C175.945 263.601 176.574 263.661 177.149 263.698C178.549 263.787 180.039 263.857 181.262 263.165C181.817 262.795 182.35 262.395 182.86 261.967C183.761 261.362 184.753 260.904 185.798 260.612C187.717 260.003 189.693 259.592 191.695 259.386C192.484 259.35 193.265 259.211 194.018 258.973C194.396 258.85 194.74 258.641 195.024 258.363C195.307 258.085 195.523 257.746 195.655 257.371C195.938 256.359 195.355 255.328 194.796 254.44C194.099 253.335 193.361 252.171 192.323 251.357C190.808 250.17 190.058 251.082 188.532 251.841C185.646 253.278 182.56 254.271 179.377 254.784Z" fill="#FFB8B8"/>
<path d="M175.365 256.179L165.617 253.273C164.448 252.862 163.226 252.624 161.989 252.564C160.753 252.565 159.46 252.974 158.658 253.923C157.902 254.818 157.686 256.041 157.497 257.201L157.094 259.683C156.825 260.934 156.749 262.219 156.868 263.493C157.053 264.758 157.693 266.021 158.805 266.633C160.154 267.375 161.807 267.013 163.313 266.702C166.353 266.075 169.446 265.741 172.55 265.703C173.717 265.689 174.941 265.704 175.972 265.153C177.197 264.498 177.931 263.112 178.057 261.719C178.249 259.599 177.548 256.83 175.365 256.179Z" fill="#2F2E41"/>
<path d="M208.72 253.647C209.983 253.423 211.098 252.699 212.309 252.271C214.014 251.669 215.861 251.669 217.667 251.676C218.329 251.678 219.035 251.693 219.587 252.064C220.383 252.598 220.586 253.667 220.722 254.621L221.538 260.378C221.691 261.461 221.844 262.572 221.604 263.639C221.365 264.706 220.644 265.735 219.595 266.01C218.32 266.344 217.07 265.523 215.867 264.983C212.859 263.635 209.362 263.979 206.225 262.971C205.643 262.784 205.02 262.498 204.782 261.931C204.675 261.611 204.637 261.272 204.67 260.936C204.724 259.085 204.337 256.559 204.889 254.79C205.386 253.2 207.309 253.647 208.72 253.647Z" fill="#2F2E41"/>
<path d="M229.348 225.986C231.296 225.494 233.315 225.354 235.312 225.575C236.906 225.752 238.548 226.2 239.712 227.313C241.129 228.667 241.584 230.762 241.622 232.731C241.686 236.647 240.398 240.465 237.974 243.542C237.384 244.317 236.681 244.999 235.889 245.567C235.036 246.105 234.126 246.547 233.176 246.885L212.113 255.265C206.572 257.469 201.012 259.68 195.232 261.133C195.074 261.21 194.902 261.254 194.726 261.263C194.551 261.272 194.375 261.245 194.21 261.185C194.045 261.125 193.893 261.032 193.765 260.911C193.636 260.791 193.533 260.647 193.462 260.486C191.615 257.825 190.067 254.969 188.846 251.969C188.791 251.873 188.757 251.766 188.747 251.656C188.736 251.546 188.75 251.435 188.786 251.331C188.864 251.215 188.971 251.122 189.097 251.064L203.995 242.43C205.088 241.855 206.106 241.147 207.027 240.323C207.671 239.692 208.199 238.952 208.584 238.137C208.892 237.486 208.921 235.951 209.316 235.47C209.702 234.999 211.023 234.962 211.633 234.776C212.494 234.511 213.337 234.189 214.156 233.815C217.488 232.311 220.456 230.126 223.65 228.365C225.441 227.333 227.355 226.533 229.348 225.986Z" fill="#2F2E41"/>
<path opacity="0.1" d="M220.903 232.434C218.344 234.373 215.03 236.155 212.493 238.145C211.627 238.824 197.195 247.008 196.991 248.095C199.358 248.497 214.433 237.86 216.59 236.798C218.747 235.737 220.659 234.24 222.553 232.754C223.036 232.376 225.082 231.237 223.696 230.814C222.915 230.576 221.479 232.046 220.903 232.434Z" fill="black"/>
<path d="M195.268 172.985C203.276 172.985 209.767 166.494 209.767 158.486C209.767 150.479 203.276 143.988 195.268 143.988C187.261 143.988 180.77 150.479 180.77 158.486C180.77 166.494 187.261 172.985 195.268 172.985Z" fill="#FFB8B8"/>
<path d="M201.373 170.696C201.373 170.696 199.084 176.419 203.281 178.708C207.477 180.997 190.308 199.311 190.308 199.311L182.678 177.182C182.678 177.182 189.164 174.893 188.019 168.788L201.373 170.696Z" fill="#FFB8B8"/>
<path d="M191.834 186.339L201.075 176.138L213.582 182.523L211.674 227.545L208.622 230.978C208.622 230.978 195.65 242.424 175.81 232.886C175.81 232.886 168.942 227.163 169.324 218.388C169.705 209.612 168.561 208.468 168.561 208.468L168.179 177.563L187.016 173.867L191.834 186.339Z" fill="#22D4EC"/>
<path d="M149.466 234.885L147.11 242.143C147.11 242.143 135.765 253.864 139.868 257.041C143.972 260.218 153.178 243.471 153.178 243.471L154.874 235.277L149.466 234.885Z" fill="#FFB8B8"/>
<path d="M171.231 178.708L167.798 177.563C167.798 177.563 162.456 179.089 161.693 184.431C160.93 189.772 155.207 216.862 155.207 216.862C155.207 216.862 152.918 218.006 154.444 219.914C155.97 221.822 146.813 238.991 146.813 238.991L154.062 242.424C154.062 242.424 168.561 227.163 168.561 225.637C168.561 224.111 168.179 222.585 168.179 221.058C168.179 219.532 168.561 219.532 168.179 218.388C167.924 217.39 167.796 216.365 167.798 215.335L170.468 209.231L171.231 178.708Z" fill="#22D4EC"/>
<path d="M211.342 145.679L199.355 139.346L182.801 141.937L179.376 157.195L187.902 156.864L190.284 151.259V156.771L194.218 156.619L196.501 147.695L197.928 157.195L211.913 156.907L211.342 145.679Z" fill="#2F2E41"/>
<path d="M126.367 243.832V265.839H59.1476C59.1479 260.003 61.4666 254.405 65.5936 250.278C69.7207 246.151 75.3181 243.833 81.1546 243.832C87.4576 241.867 94.7449 241.242 102.65 241.448C110.109 241.639 118.118 242.573 126.367 243.832Z" fill="#FFC700"/>
<path d="M116.764 261.039H148.374C148.904 261.039 149.413 261.249 149.788 261.625C150.163 262 150.374 262.509 150.374 263.039C150.374 263.57 150.163 264.079 149.788 264.454C149.413 264.829 148.904 265.04 148.374 265.04H116.764V261.039Z" fill="#3F3D56"/>
<path d="M122.239 224.999L130.711 214.729C130.907 214.321 131.221 213.983 131.613 213.759C132.006 213.535 132.457 213.435 132.907 213.474C133.357 213.513 133.784 213.687 134.133 213.975C134.481 214.262 134.734 214.649 134.857 215.084L138.198 226.88L122.239 224.999Z" fill="#3F3D56"/>
<path d="M111.963 230.23L115.164 217.306C115.164 216.854 115.301 216.413 115.558 216.042C115.815 215.67 116.179 215.386 116.601 215.226C117.024 215.066 117.485 215.039 117.923 215.147C118.362 215.256 118.757 215.496 119.055 215.835L127.167 225.028L111.963 230.23Z" fill="#FFC700"/>
<path d="M59.1472 265.84H65.5491V279.444C65.5491 280.285 65.3835 281.117 65.0618 281.894C64.7401 282.671 64.2685 283.376 63.674 283.971C63.0796 284.565 62.3738 285.037 61.5971 285.359C60.8204 285.68 59.9879 285.846 59.1472 285.846V265.84Z" fill="#FFC700"/>
<path d="M115.564 261.839H147.173C147.704 261.839 148.213 262.05 148.588 262.425C148.963 262.8 149.174 263.309 149.174 263.839C149.174 264.37 148.963 264.879 148.588 265.254C148.213 265.629 147.704 265.84 147.173 265.84H115.564V261.839Z" fill="#FFC700"/>
<path opacity="0.2" d="M126.367 243.832V265.717C123.119 266.062 119.836 265.667 116.763 264.561C113.69 263.455 110.908 261.667 108.626 259.331C106.343 256.995 104.62 254.173 103.585 251.075C102.55 247.978 102.23 244.686 102.65 241.448C110.109 241.639 118.118 242.573 126.367 243.832Z" fill="black"/>
<path d="M126.367 265.84C138.3 265.84 147.973 256.167 147.973 244.234C147.973 232.301 138.3 222.627 126.367 222.627C114.434 222.627 104.761 232.301 104.761 244.234C104.761 256.167 114.434 265.84 126.367 265.84Z" fill="#FFC700"/>
<path d="M147.173 251.436C148.499 251.436 149.574 248.928 149.574 245.834C149.574 242.74 148.499 240.232 147.173 240.232C145.847 240.232 144.772 242.74 144.772 245.834C144.772 248.928 145.847 251.436 147.173 251.436Z" fill="#3F3D56"/>
<path d="M141.372 241.433C141.703 241.433 141.972 240.806 141.972 240.032C141.972 239.259 141.703 238.632 141.372 238.632C141.04 238.632 140.771 239.259 140.771 240.032C140.771 240.806 141.04 241.433 141.372 241.433Z" fill="#3F3D56"/>
<path d="M145.773 238.632C146.104 238.632 146.373 238.005 146.373 237.232C146.373 236.458 146.104 235.831 145.773 235.831C145.441 235.831 145.173 236.458 145.173 237.232C145.173 238.005 145.441 238.632 145.773 238.632Z" fill="#3F3D56"/>
<path d="M124.554 222.387C124.554 222.387 123.354 220.298 123.354 219.023Z" fill="#3F3D56"/>
<path d="M125.083 221.036C125.083 221.036 125.737 218.717 126.648 217.826Z" fill="#3F3D56"/>
</g>
<defs>
<clipPath id="clip0_131_2">
<rect width="300" height="285.846" fill="white"/>
</clipPath>
</defs>
</svg>
